<svg width="678" height="401" viewBox="0 0 678 401" fill="none" xmlns="http://www.w3.org/2000/svg">
<path d="M678 0.0281048C677.4 5.73307 675.893 10.7117 673.938 16.0906C673.624 16.9693 673.31 17.8479 672.987 18.7532C671.998 21.5141 671 24.2713 670 27.0281C669.417 28.6491 668.833 30.2702 668.25 31.8914C666.62 36.4083 664.971 40.918 663.318 45.4265C662.323 48.1444 661.332 50.8631 660.342 53.5828C658.797 57.8316 657.246 62.0786 655.692 66.3246C655.069 68.0295 654.448 69.735 653.828 71.4411C652.947 73.865 652.06 76.2866 651.172 78.7078C650.912 79.4279 650.651 80.148 650.383 80.8899C645.327 94.6017 645.327 94.6017 640.375 98.5281C639.785 99.0128 639.194 99.4975 638.586 99.9969C637 101.028 637 101.028 635 101.028C634.697 100.012 634.394 98.9965 634.082 97.95C631.743 90.2263 629.226 82.7625 625.918 75.3836C625 73.0281 625 73.0281 625 70.0281C624.482 70.4103 623.964 70.7925 623.43 71.1863C604.398 85.2274 604.398 85.2274 595 92.0281C596.411 95.0902 598.129 97.5544 600.188 100.216C614.133 120.043 616.748 145.528 612.875 168.966C610.64 180.787 605.929 190.929 598 200.028C597.237 201.059 596.474 202.091 595.688 203.153C589.54 209.73 581.351 214.703 573 218.028C572.01 218.028 571.02 218.028 570 218.028C570 218.688 570 219.348 570 220.028C571.69 220.15 571.69 220.15 573.414 220.274C578.532 220.922 582.77 222.845 587.375 225.091C588.632 225.698 588.632 225.698 589.914 226.317C596.324 229.507 601.788 233.086 607 238.028C607.837 238.776 608.673 239.523 609.535 240.294C616.106 246.438 620.711 253.149 625 261.028C625.495 261.934 625.99 262.841 626.5 263.774C637.638 286.083 636.113 314.766 628.625 337.841C620.648 360.502 605.751 376.353 584.176 386.942C575.035 391.239 565.877 393.948 556 396.028C555.279 396.186 554.558 396.344 553.815 396.507C532.474 401.027 510.288 400.31 488.58 400.231C484.499 400.218 480.417 400.217 476.336 400.215C468.652 400.209 460.967 400.192 453.283 400.172C444.516 400.15 435.749 400.139 426.982 400.129C408.988 400.108 390.994 400.073 373 400.028C371.39 396.983 369.783 393.936 368.176 390.889C367.496 389.603 367.496 389.603 366.802 388.29C363.322 381.689 360.063 375.014 356.945 368.235C354.335 362.646 351.519 357.189 348.625 351.743C341.848 338.969 335.435 326.012 328.987 313.07C327.325 309.736 325.66 306.402 323.996 303.069C321.087 297.241 318.18 291.413 315.274 285.583C314.184 283.397 313.093 281.212 312 279.028C306.253 280.777 300.858 283.226 295.375 285.653C268.163 297.562 240.625 306.242 212 314.028C211.136 314.263 210.273 314.498 209.383 314.74C184.5 321.376 155.847 326.735 130 326.028C129.731 326.897 129.461 327.765 129.184 328.66C128.033 331.933 126.666 334.851 125.059 337.923C124.19 339.591 124.19 339.591 123.303 341.293C122.681 342.475 122.06 343.658 121.438 344.841C120.8 346.062 120.162 347.283 119.525 348.504C115.737 355.756 111.91 362.987 108.063 370.209C104.239 377.414 100.62 384.719 97 392.028C95.68 394.668 94.36 397.308 93 400.028C62.31 400.028 31.62 400.028 0 400.028C1.48153 395.584 2.85979 392.159 5.05469 388.126C5.66337 387 6.27205 385.874 6.89917 384.714C7.22114 384.124 7.54309 383.533 7.87482 382.925C9.58626 379.786 11.2824 376.639 12.9805 373.493C13.4947 372.542 13.4947 372.542 14.0193 371.571C17.1364 365.797 20.1711 359.981 23.1875 354.153C27.5163 345.806 31.9735 337.537 36.5007 329.296C40.6105 321.794 44.5691 314.219 48.5044 306.625C51.8793 300.129 55.3463 293.691 58.875 287.278C64.0044 277.951 68.9136 268.519 73.7886 259.056C77.4357 251.995 81.1659 244.989 85 238.028C91.3493 226.495 97.3745 214.799 103.412 203.1C110.139 190.087 117.054 177.175 123.98 164.267C128.844 155.2 133.678 146.117 138.5 137.028C144.389 125.928 150.308 114.844 156.252 103.773C159.73 97.2887 163.187 90.7935 166.621 84.2859C167.016 83.5374 167.412 82.7889 167.819 82.0178C170.054 77.7844 172.285 73.5494 174.511 69.3111C179.201 60.4508 184.078 51.7784 189 43.0281C220.68 43.0281 252.36 43.0281 285 43.0281C290.445 54.4131 290.445 54.4131 296 66.0281C298.505 71.1208 301.017 76.2062 303.562 81.2781C303.879 81.9096 304.195 82.5412 304.521 83.1919C308.659 91.4559 312.875 99.6736 317.223 107.83C321.26 115.438 325.08 123.155 328.914 130.867C332.57 138.215 336.27 145.533 340.125 152.778C344.053 160.169 347.864 167.614 351.625 175.091C352.159 176.145 352.693 177.2 353.243 178.287C353.732 179.265 354.222 180.243 354.727 181.251C355.166 182.125 355.605 182.999 356.057 183.899C357 186.028 357 186.028 357 188.028C383.352 175.201 408.72 160.672 433.426 144.923C437.892 142.082 442.41 139.331 446.938 136.591C462.265 127.283 477.166 117.301 492.062 107.323C493.768 106.183 495.479 105.052 497.191 103.923C510.64 95.0487 523.671 85.5702 536.719 76.1219C540.529 73.3643 544.355 70.63 548.188 67.9031C555.512 62.6842 562.76 57.3629 570 52.0281C570.83 51.4173 571.659 50.8064 572.514 50.177C578.01 46.1292 583.506 42.0795 589 38.0281C586.622 35.3809 584.128 33.8534 581 32.1805C580.031 31.6577 579.061 31.135 578.062 30.5965C577.052 30.0583 576.041 29.5201 575 28.9656C572.999 27.8926 570.999 26.8184 569 25.7429C568.113 25.2698 567.226 24.7966 566.312 24.3091C564 23.0281 564 23.0281 561 21.0281C561 20.3681 561 19.7081 561 19.0281C567.023 16.1054 573 14.809 579.562 13.5906C580.692 13.3767 581.822 13.1628 582.986 12.9424C592.93 11.1152 602.916 9.75562 612.943 8.47976C620.849 7.46961 628.708 6.31358 636.562 4.9656C644.178 3.66384 651.794 2.40478 659.438 1.2781C660.272 1.15041 661.106 1.02271 661.965 0.891142C667.362 0.111791 672.546 -0.0810792 678 0.0281048Z" fill="#0157C8"/>
<path d="M189 43.0273C220.68 43.0273 252.36 43.0273 285 43.0273C290.445 54.4123 290.445 54.4123 296 66.0273C298.505 71.1201 301.017 76.2055 303.562 81.2773C304.037 82.2247 304.037 82.2247 304.521 83.1911C308.659 91.4552 312.875 99.6729 317.223 107.829C321.26 115.438 325.08 123.154 328.914 130.866C332.57 138.214 336.27 145.532 340.125 152.777C344.053 160.168 347.864 167.613 351.625 175.09C352.159 176.145 352.693 177.199 353.243 178.286C353.732 179.264 354.222 180.242 354.727 181.25C355.166 182.124 355.605 182.998 356.057 183.899C357 186.027 357 186.027 357 188.027C376.489 178.541 395.454 168.123 414.055 157C415.27 156.273 415.27 156.273 416.511 155.532C418.264 154.472 420.009 153.399 421.747 152.316C422.637 151.766 423.528 151.215 424.445 150.648C425.247 150.146 426.049 149.644 426.875 149.127C429 148.027 429 148.027 432 148.027C433.473 150.125 433.473 150.125 435.062 153.09C437.855 158.091 440.805 162.899 444 167.652C444.424 168.284 444.848 168.915 445.285 169.565C448.795 174.762 452.367 179.915 456 185.027C455 187.027 454 189.027 453 191.027C452.01 191.027 451.02 191.027 450 191.027C449.67 192.017 449.34 193.007 449 194.027C447.667 194.361 446.333 194.694 445 195.027C444.67 196.017 444.34 197.007 444 198.027C442.428 198.984 440.846 199.928 439.227 200.801C433.334 204.047 427.474 207.535 422.5 212.09C419.877 214.448 417.26 216.038 414.125 217.652C408.941 220.355 404.293 223.555 399.562 226.965C393.774 231.131 387.953 234.967 381.73 238.469C379.068 239.988 376.506 241.606 373.938 243.277C340.088 265.027 340.088 265.027 333 265.027C333 265.687 333 266.347 333 267.027C332.406 267.304 331.811 267.581 331.199 267.866C328.464 269.144 325.732 270.429 323 271.715C322.065 272.15 321.131 272.585 320.168 273.033C316.039 274.982 312.045 276.916 308.246 279.457C302.293 283.303 295.594 285.776 289.062 288.465C288.371 288.752 287.679 289.039 286.966 289.335C276.755 293.575 266.523 297.625 256 301.027C254.225 301.611 254.225 301.611 252.414 302.207C213.805 314.591 170.976 327.148 130 326.027C129.731 326.896 129.461 327.764 129.184 328.659C128.033 331.932 126.666 334.85 125.059 337.922C124.19 339.59 124.19 339.59 123.303 341.292C122.681 342.474 122.06 343.657 121.438 344.84C120.8 346.061 120.162 347.282 119.525 348.503C115.737 355.755 111.91 362.987 108.063 370.208C104.239 377.413 100.62 384.718 97 392.027C95.68 394.667 94.36 397.307 93 400.027C62.31 400.027 31.62 400.027 0 400.027C1.48153 395.583 2.85979 392.159 5.05469 388.125C5.66337 386.999 6.27205 385.873 6.89917 384.713C7.22114 384.123 7.54312 383.532 7.87485 382.924C9.58629 379.785 11.2824 376.638 12.9805 373.492C13.4947 372.541 13.4947 372.541 14.0193 371.57C17.1365 365.796 20.1711 359.98 23.1875 354.152C27.5163 345.805 31.9735 337.537 36.5007 329.295C40.6105 321.793 44.5691 314.219 48.5044 306.624C51.8793 300.128 55.3463 293.691 58.875 287.277C64.0044 277.95 68.9136 268.518 73.7886 259.056C77.4357 251.994 81.1659 244.989 85 238.027C91.3493 226.494 97.3745 214.798 103.412 203.1C110.139 190.087 117.054 177.174 123.98 164.266C128.844 155.199 133.678 146.116 138.5 137.027C144.389 125.927 150.308 114.843 156.252 103.772C159.73 97.288 163.187 90.7927 166.621 84.2852C167.016 83.5367 167.412 82.7882 167.819 82.017C170.054 77.7837 172.285 73.5487 174.511 69.3103C179.201 60.45 184.078 51.7776 189 43.0273Z" fill="#203469"/>
<path d="M316 47.0268C338.742 46.9563 361.484 46.9036 384.226 46.8714C394.788 46.856 405.351 46.8351 415.913 46.8005C425.133 46.7703 434.352 46.7512 443.572 46.7445C448.441 46.7407 453.311 46.7318 458.18 46.7096C511.968 46.4749 511.968 46.4749 537 54.0268C532.263 59.4008 526.343 62.9566 520.375 66.8393C513.307 71.4613 506.355 76.1688 499.55 81.1716C495.893 83.8321 492.148 86.3472 488.375 88.8393C487.226 89.6011 487.226 89.6011 486.054 90.3784C465.381 104.06 444.407 117.242 423.203 130.085C419.769 132.167 416.339 134.254 412.91 136.343C392.102 149.014 392.102 149.014 381.938 155.027C381.26 155.43 380.582 155.833 379.883 156.248C377.272 157.784 374.884 159.065 372 160.027C371.553 159.133 371.107 158.24 370.647 157.319C366.185 148.393 361.719 139.47 357.25 130.548C353.021 122.104 348.794 113.659 344.568 105.214C341.736 99.5551 338.903 93.8966 336.068 88.239C333.308 82.7296 330.55 77.2192 327.793 71.7081C326.744 69.6125 325.695 67.5172 324.645 65.4223C323.188 62.5154 321.733 59.6073 320.279 56.6989C319.843 55.83 319.407 54.961 318.957 54.0658C318.369 52.8868 318.369 52.8868 317.768 51.6839C317.425 50.9977 317.081 50.3115 316.727 49.6044C316 48.0268 316 48.0268 316 47.0268Z" fill="#0058CA"/>
<path d="M394 257.028C409.308 256.981 424.617 256.946 439.925 256.925C447.034 256.914 454.143 256.9 461.252 256.877C467.454 256.857 473.655 256.844 479.856 256.84C483.135 256.837 486.414 256.83 489.693 256.817C493.367 256.802 497.04 256.8 500.714 256.801C501.783 256.794 502.853 256.787 503.955 256.779C517.979 256.817 530.942 258.97 541.5 268.903C549.198 277.304 551.412 286.963 551.188 298.138C550.594 307.293 547.511 314.977 540.812 321.278C527.717 332.156 511.595 331.319 495.453 331.223C493.587 331.22 491.721 331.217 489.855 331.215C484.982 331.207 480.109 331.188 475.237 331.165C470.249 331.145 465.261 331.136 460.273 331.126C450.516 331.104 440.758 331.07 431 331.028C429.116 327.43 427.233 323.831 425.352 320.231C424.826 319.229 424.301 318.226 423.76 317.193C420.223 310.424 416.768 303.62 413.375 296.778C409.469 288.918 405.467 281.117 401.347 273.367C394 259.542 394 259.542 394 257.028Z" fill="#FDFDFD"/>
<path d="M234 124.027C234.66 124.027 235.32 124.027 236 124.027C236.467 124.962 236.934 125.897 237.415 126.861C241.525 135.088 245.646 143.308 249.779 151.523C253.292 158.506 256.798 165.492 260.303 172.478C262.649 177.154 264.997 181.828 267.35 186.5C269.646 191.061 271.937 195.625 274.224 200.191C275.093 201.923 275.964 203.654 276.837 205.384C278.048 207.785 279.253 210.191 280.455 212.597C280.817 213.309 281.178 214.021 281.55 214.755C283.015 217.703 284 219.689 284 223.027C251.597 234.696 251.597 234.696 238 239.027C237.228 239.274 236.457 239.521 235.662 239.776C222.589 243.928 209.413 247.18 196 250.027C195.08 250.226 194.16 250.425 193.212 250.63C190.518 251.211 187.822 251.778 185.125 252.34C183.922 252.597 183.922 252.597 182.695 252.86C177.7 253.871 173.097 254.184 168 254.027C169.558 248.67 171.987 244.033 174.625 239.152C175.542 237.434 176.457 235.716 177.371 233.996C178.048 232.724 178.048 232.724 178.738 231.426C180.439 228.193 182.071 224.928 183.688 221.652C187.526 213.903 191.506 206.228 195.49 198.552C199.958 189.941 204.394 181.313 208.805 172.672C209.31 171.683 209.815 170.694 210.335 169.675C212.852 164.743 215.366 159.81 217.879 154.876C223.15 144.537 228.486 134.24 234 124.027Z" fill="#FCFCFC"/>
<path d="M529 138.027C533.779 142.558 534.766 147.871 535.129 154.316C535.385 165.344 532.996 174.504 525.355 182.816C514.494 192.045 498.993 193.2 485.375 193.125C483.894 193.123 483.894 193.123 482.383 193.121C479.255 193.115 476.128 193.103 473 193.09C470.868 193.085 468.737 193.08 466.605 193.076C461.404 193.065 456.202 193.049 451 193.027C461.63 184.472 473.045 176.902 484.254 169.133C490.325 164.916 496.341 160.634 502.312 156.277C511.029 149.921 519.981 143.944 529 138.027Z" fill="#F8FAFC"/>
<path d="M451 177.027C454.26 180.197 457.222 183.427 460 187.027C457.69 188.347 455.38 189.667 453 191.027C453.412 190.161 453.825 189.295 454.25 188.402C455.424 184.916 455.424 184.916 453.125 181.777C452.424 180.87 451.723 179.962 451 179.027C451 178.367 451 177.707 451 177.027Z" fill="#1A51A1"/>
</svg>
