<svg width="895" height="123" viewBox="0 0 895 123" fill="none" xmlns="http://www.w3.org/2000/svg">
<path d="M542.852 20.1172C560.127 20.0914 575.397 24.8284 588.336 36.5088C592.07 40.4116 594.45 45.1292 596.619 50.085L597.54 52.2236C597.91 53.0893 598.279 53.9555 598.66 54.8467C602.306 68.9899 600.509 85.0278 593.564 97.7803C586.015 109.949 575.385 115.507 561.856 119.548L561.847 119.552C560.144 120.1 560.135 120.102 558.415 120.656C552.599 122.061 546.596 121.9 540.549 121.898H540.548C538.461 121.903 536.376 121.938 534.294 121.976C516.79 122.122 501.401 117.236 488.509 105.021C479.802 95.5299 476.119 81.8635 476.289 69.165C477.254 54.9306 481.947 42.4508 492.431 32.666C505.41 22.5498 520.252 19.9925 536.416 20.1367H536.417C538.564 20.1529 540.709 20.1363 542.852 20.1172Z" fill="#0455CA" stroke="white"/>
<path d="M542.852 20.1172C560.127 20.0914 575.397 24.8284 588.336 36.5088C592.07 40.4116 594.45 45.1292 596.619 50.085L597.54 52.2236C597.91 53.0893 598.279 53.9555 598.66 54.8467C602.306 68.9899 600.509 85.0278 593.564 97.7803C586.015 109.949 575.385 115.507 561.856 119.548L561.847 119.552C560.144 120.1 560.135 120.102 558.415 120.656C552.599 122.061 546.596 121.9 540.549 121.898H540.548C538.461 121.903 536.376 121.938 534.294 121.976C516.79 122.122 501.401 117.236 488.509 105.021C479.802 95.5299 476.119 81.8635 476.289 69.165C477.254 54.9306 481.947 42.4508 492.431 32.666C505.41 22.5498 520.252 19.9925 536.416 20.1367H536.417C538.564 20.1529 540.709 20.1363 542.852 20.1172Z" fill="#0455CA" stroke="white"/>
<path d="M673.852 20.1172C690.433 20.0898 706.471 24.3627 718.67 36.0732C727.08 45.9116 731.046 56.6752 730.812 69.4561V69.4668L730.822 72.125C730.71 85.7994 726.891 96.2697 717.577 106.491C712.136 111.636 705.705 114.559 698.8 117.569L698.794 117.572C698.025 117.92 697.255 118.267 696.463 118.625C688.21 121.541 680.226 121.9 671.473 121.898H671.472C669.393 121.903 667.318 121.938 665.245 121.976C647.836 122.121 632.356 117.278 619.574 105.066C609.916 94.6505 606.692 80.3938 607.183 66.3682C608.328 54.4199 612.788 42.06 621.932 33.9873C635.409 23.1805 650.423 19.985 667.416 20.1367H667.417C669.564 20.1529 671.709 20.1363 673.852 20.1172Z" fill="#0456CB" stroke="white"/>
<path d="M673.852 20.1172C690.433 20.0898 706.471 24.3627 718.67 36.0732C727.08 45.9116 731.046 56.6752 730.812 69.4561V69.4668L730.822 72.125C730.71 85.7994 726.891 96.2697 717.577 106.491C712.136 111.636 705.705 114.559 698.8 117.569L698.794 117.572C698.025 117.92 697.255 118.267 696.463 118.625C688.21 121.541 680.226 121.9 671.473 121.898H671.472C669.393 121.903 667.318 121.938 665.245 121.976C647.836 122.121 632.356 117.278 619.574 105.066C609.916 94.6505 606.692 80.3938 607.183 66.3682C608.328 54.4199 612.788 42.06 621.932 33.9873C635.409 23.1805 650.423 19.985 667.416 20.1367H667.417C669.564 20.1529 671.709 20.1363 673.852 20.1172Z" fill="#0456CB" stroke="white"/>
<path d="M171.307 21.2568C192.684 21.1405 214.861 21.2866 231.268 36.5664C240.496 46.304 244.084 57.6421 243.938 70.8975V70.8994C243.93 71.8608 243.923 72.8221 243.915 73.8125C243.584 88.1293 238.163 98.9525 227.883 108.863C224.227 111.812 220.175 113.728 215.806 115.567L215.798 115.57L215.79 115.574C215.079 115.904 214.367 116.232 213.635 116.571C204.412 119.806 195.139 119.797 185.371 119.724H185.368C184.061 119.722 182.754 119.72 181.407 119.718C176.565 119.707 171.722 119.679 166.878 119.653H166.877C150.768 119.592 150.605 119.591 134.5 119.529V21.5244C143.719 21.4636 152.942 21.4034 162.44 21.3408H162.442C166.83 21.2999 166.831 21.2996 171.308 21.2578L171.307 21.2568Z" fill="#1A2E67" stroke="white"/>
<path d="M171.307 21.2568C192.684 21.1405 214.861 21.2866 231.268 36.5664C240.496 46.304 244.084 57.6421 243.938 70.8975V70.8994C243.93 71.8608 243.923 72.8221 243.915 73.8125C243.584 88.1293 238.163 98.9525 227.883 108.863C224.227 111.812 220.175 113.728 215.806 115.567L215.798 115.57L215.79 115.574C215.079 115.904 214.367 116.232 213.635 116.571C204.412 119.806 195.139 119.797 185.371 119.724H185.368C184.061 119.722 182.754 119.72 181.407 119.718C176.565 119.707 171.722 119.679 166.878 119.653H166.877C150.768 119.592 150.605 119.591 134.5 119.529V21.5244C143.719 21.4636 152.942 21.4034 162.44 21.3408H162.442C166.83 21.2999 166.831 21.2996 171.308 21.2578L171.307 21.2568Z" fill="#1A2E67" stroke="white"/>
<path d="M421.124 21.21C434.598 21.0742 441.241 21.0109 445.778 22.0342C450.242 23.0406 452.652 25.0943 457.649 29.3848C460.42 32.451 462.218 35.2518 463.309 38.3018C464.4 41.3551 464.793 44.692 464.707 48.8486C464.144 54.658 462.636 59.198 458.297 63.0859C455.675 65.1832 453.027 66.3755 449.827 67.5576L448.619 68.0039L449.812 68.4902C450.439 68.746 451.066 69.0012 451.712 69.2646C458.51 72.3069 463.319 76.0996 467.55 82.2559C469.804 88.3836 469.497 96.5684 467.659 102.777C464.582 109.405 460.705 113.869 454.019 116.774C442.661 120.827 431.379 120.667 419.373 120.625H419.372C417.952 120.624 416.531 120.623 415.11 120.622L399.438 120.59C382.062 120.559 381.898 120.558 364.5 120.527V21.5244C375.926 21.4634 387.356 21.4027 399.128 21.3398H399.129C404.576 21.2989 404.576 21.2986 410.133 21.2568L410.132 21.2559C414.638 21.2423 414.638 21.2428 416.761 21.2402H416.762C418.216 21.2357 419.67 21.2254 421.124 21.21Z" fill="#0555C9" stroke="white"/>
<path d="M421.124 21.21C434.598 21.0742 441.241 21.0109 445.778 22.0342C450.242 23.0406 452.652 25.0943 457.649 29.3848C460.42 32.451 462.218 35.2518 463.309 38.3018C464.4 41.3551 464.793 44.692 464.707 48.8486C464.144 54.658 462.636 59.198 458.297 63.0859C455.675 65.1832 453.027 66.3755 449.827 67.5576L448.619 68.0039L449.812 68.4902C450.439 68.746 451.066 69.0012 451.712 69.2646C458.51 72.3069 463.319 76.0996 467.55 82.2559C469.804 88.3836 469.497 96.5684 467.659 102.777C464.582 109.405 460.705 113.869 454.019 116.774C442.661 120.827 431.379 120.667 419.373 120.625H419.372C417.952 120.624 416.531 120.623 415.11 120.622L399.438 120.59C382.062 120.559 381.898 120.558 364.5 120.527V21.5244C375.926 21.4634 387.356 21.4027 399.128 21.3398H399.129C404.576 21.2989 404.576 21.2986 410.133 21.2568L410.132 21.2559C414.638 21.2423 414.638 21.2428 416.761 21.2402H416.762C418.216 21.2357 419.67 21.2254 421.124 21.21Z" fill="#0555C9" stroke="white"/>
<path d="M880.64 1.3877C885.265 0.78191 889.71 0.427009 894.34 0.512695C891.975 8.75709 889.218 16.8671 886.395 24.9795L886.394 24.9805C885.854 26.5398 885.319 28.1011 884.79 29.6641C884.019 31.9411 883.231 34.2126 882.438 36.4844L882.436 36.4902C882.204 37.1841 881.973 37.8781 881.734 38.5928C881.049 40.5228 880.437 42.0425 879.558 43.3213C878.706 44.5605 877.59 45.592 875.873 46.5273H874.329C873.698 45.0715 873.077 43.6107 872.461 42.1465L872.46 42.1436L871.345 39.5303C870.481 36.8805 870.337 34.8591 870.499 32.0566L870.553 31.1348L869.751 31.5938C849.988 42.9237 830.44 54.6053 811.107 66.6553L808.646 68.1895C807.582 68.8543 807.58 68.8552 806.498 69.5312C804.753 70.5923 804.765 70.5858 802.776 71.5801L802.095 71.9209L802.679 72.4111C808.558 77.344 814.556 82.0603 820.674 86.666L823.303 88.6328C829.247 93.0631 835.097 97.6083 840.939 102.181H840.94C846.869 106.81 852.87 111.332 858.929 115.786V115.787C860.467 116.927 861.985 118.095 863.5 119.272V119.553C858.223 119.839 852.95 120.049 847.666 120.188H847.663C845.814 120.247 843.965 120.328 842.117 120.434C833.615 120.905 829.468 121.13 826.518 120.521C823.631 119.926 821.894 118.535 818.226 115.561C816.014 113.535 813.93 111.419 811.881 109.219L811.871 109.207L811.39 108.73C809.612 107.002 807.699 105.497 805.749 104.031L803.611 102.439C798.564 98.6258 793.636 94.6826 788.756 90.6504V90.6494L786.318 88.6416H786.317C785.444 87.9011 784.57 87.1603 783.67 86.3975C783.135 85.9087 782.714 85.5252 782.354 85.2383C781.99 84.9481 781.66 84.7337 781.295 84.5986C780.575 84.3324 779.804 84.4163 778.579 84.5303L778.511 84.5361L778.447 84.5605C777.154 85.0532 777.147 85.055 775.841 85.5527C774.655 85.9176 773.469 86.2833 772.247 86.6592L772.206 86.6719L772.168 86.6914C771.2 87.1829 770.644 87.4618 770.164 87.8701C769.688 88.2759 769.296 88.8024 768.601 89.7275L768.533 89.8164L768.511 89.9248C767.566 94.4107 767.516 98.8731 767.547 103.358L767.562 105.282C767.549 106.705 767.533 108.129 767.514 109.552C767.469 112.881 767.484 116.202 767.498 119.527H743.5V22.5273H766.5V66.8311L767.221 66.4766C776.628 61.8465 776.639 61.8409 785.564 56.6475L785.571 56.6436L785.578 56.6387L788.855 54.584C789.411 54.235 789.966 53.8849 790.538 53.5254C793.545 51.6537 796.587 49.8399 799.632 48.0195C800.267 47.6396 800.902 47.2596 801.556 46.8682L805.402 44.5674C807.135 43.5302 808.864 42.489 810.594 41.4482L814.008 39.3936L815.758 38.3389C819.598 36.0313 823.454 33.7504 827.321 31.4854L834.757 27.1191C836.001 26.389 837.247 25.6609 838.494 24.9346C840.258 23.9068 842.018 22.8718 843.776 21.8369C844.806 21.2346 845.836 20.6322 846.897 20.0117C848.084 19.3653 848.784 18.9908 849.27 18.4766C849.768 17.9489 850.027 17.2907 850.463 16.2158L850.671 15.7031L850.141 15.5479C849.301 15.3021 848.461 15.0558 847.597 14.8027C843.952 13.4762 840.936 11.7967 837.602 9.80371C837.858 9.03499 838.114 8.26397 838.377 7.47656C851.514 5.49053 864.651 3.52948 877.816 1.77344H877.817C878.748 1.64621 879.68 1.51779 880.639 1.38672L880.64 1.3877Z" fill="#0356CD" stroke="white"/>
<path d="M880.64 1.3877C885.265 0.78191 889.71 0.427009 894.34 0.512695C891.975 8.75709 889.218 16.8671 886.395 24.9795L886.394 24.9805C885.854 26.5398 885.319 28.1011 884.79 29.6641C884.019 31.9411 883.231 34.2126 882.438 36.4844L882.436 36.4902C882.204 37.1841 881.973 37.8781 881.734 38.5928C881.049 40.5228 880.437 42.0425 879.558 43.3213C878.706 44.5605 877.59 45.592 875.873 46.5273H874.329C873.698 45.0715 873.077 43.6107 872.461 42.1465L872.46 42.1436L871.345 39.5303C870.481 36.8805 870.337 34.8591 870.499 32.0566L870.553 31.1348L869.751 31.5938C849.988 42.9237 830.44 54.6053 811.107 66.6553L808.646 68.1895C807.582 68.8543 807.58 68.8552 806.498 69.5312C804.753 70.5923 804.765 70.5858 802.776 71.5801L802.095 71.9209L802.679 72.4111C808.558 77.344 814.556 82.0603 820.674 86.666L823.303 88.6328C829.247 93.0631 835.097 97.6083 840.939 102.181H840.94C846.869 106.81 852.87 111.332 858.929 115.786V115.787C860.467 116.927 861.985 118.095 863.5 119.272V119.553C858.223 119.839 852.95 120.049 847.666 120.188H847.663C845.814 120.247 843.965 120.328 842.117 120.434C833.615 120.905 829.468 121.13 826.518 120.521C823.631 119.926 821.894 118.535 818.226 115.561C816.014 113.535 813.93 111.419 811.881 109.219L811.871 109.207L811.39 108.73C809.612 107.002 807.699 105.497 805.749 104.031L803.611 102.439C798.564 98.6258 793.636 94.6826 788.756 90.6504V90.6494L786.318 88.6416H786.317C785.444 87.9011 784.57 87.1603 783.67 86.3975C783.135 85.9087 782.714 85.5252 782.354 85.2383C781.99 84.9481 781.66 84.7337 781.295 84.5986C780.575 84.3324 779.804 84.4163 778.579 84.5303L778.511 84.5361L778.447 84.5605C777.154 85.0532 777.147 85.055 775.841 85.5527C774.655 85.9176 773.469 86.2833 772.247 86.6592L772.206 86.6719L772.168 86.6914C771.2 87.1829 770.644 87.4618 770.164 87.8701C769.688 88.2759 769.296 88.8024 768.601 89.7275L768.533 89.8164L768.511 89.9248C767.566 94.4107 767.516 98.8731 767.547 103.358L767.562 105.282C767.549 106.705 767.533 108.129 767.514 109.552C767.469 112.881 767.484 116.202 767.498 119.527H743.5V22.5273H766.5V66.8311L767.221 66.4766C776.628 61.8465 776.639 61.8409 785.564 56.6475L785.571 56.6436L785.578 56.6387L788.855 54.584C789.411 54.235 789.966 53.8849 790.538 53.5254C793.545 51.6537 796.587 49.8399 799.632 48.0195C800.267 47.6396 800.902 47.2596 801.556 46.8682L805.402 44.5674C807.135 43.5302 808.864 42.489 810.594 41.4482L814.008 39.3936L815.758 38.3389C819.598 36.0313 823.454 33.7504 827.321 31.4854L834.757 27.1191C836.001 26.389 837.247 25.6609 838.494 24.9346C840.258 23.9068 842.018 22.8718 843.776 21.8369C844.806 21.2346 845.836 20.6322 846.897 20.0117C848.084 19.3653 848.784 18.9908 849.27 18.4766C849.768 17.9489 850.027 17.2907 850.463 16.2158L850.671 15.7031L850.141 15.5479C849.301 15.3021 848.461 15.0558 847.597 14.8027C843.952 13.4762 840.936 11.7967 837.602 9.80371C837.858 9.03499 838.114 8.26397 838.377 7.47656C851.514 5.49053 864.651 3.52948 877.816 1.77344H877.817C878.748 1.64621 879.68 1.51779 880.639 1.38672L880.64 1.3877Z" fill="#0356CD" stroke="white"/>
<path d="M55.6582 22.4297H55.6592C56.6558 22.4318 56.656 22.4324 57.6729 22.4346C59.8014 22.4402 61.93 22.4521 64.0596 22.4648H64.0605C65.5012 22.4699 66.9421 22.4744 68.3828 22.4785C71.8217 22.4893 75.2611 22.5056 78.7002 22.5254C83.6332 31.6095 88.3284 40.7671 92.7354 50.1162C97.9877 61.2425 103.628 72.1452 109.318 83.04C112.574 89.274 115.748 95.5451 118.864 101.851V101.852C120.015 104.169 121.184 106.478 122.367 108.778V108.779L124.055 112.068L124.056 112.07C124.538 113.001 125.02 113.932 125.518 114.891C126.035 116.073 126.264 116.603 126.38 117.203C126.484 117.743 126.497 118.346 126.499 119.527H100.315C99.0408 116.858 97.7644 114.187 96.4512 111.438L96.4502 111.437L95.1855 108.804H95.1865C94.8617 108.119 94.5368 107.433 94.2021 106.728L94.2012 106.727L93.1943 104.618C92.8221 103.712 92.663 103.319 92.583 102.906C92.5025 102.491 92.5 102.047 92.5 101.027V100.527H34.5898L34.5098 100.93C34.1835 102.561 33.8565 104.192 33.5205 105.872C32.3908 108.333 31.2398 110.714 29.9941 113.109L29.9932 113.111C28.904 115.23 27.8149 117.349 26.6953 119.527H0.694336C1.67568 116.584 2.18932 115.058 2.63574 113.938C3.10856 112.751 3.50389 112.025 4.32227 110.524L4.32324 110.522C4.68676 109.847 5.0493 109.171 5.42383 108.475C5.79961 107.787 6.17631 107.101 6.56348 106.393L6.56445 106.392C10.5835 98.9989 14.3538 91.4926 18.0957 83.9678C22.5201 75.0755 26.9589 66.1905 31.3955 57.3037C33.0719 53.9457 34.7468 50.5868 36.4209 47.2275C38.0622 43.9341 39.706 40.6415 41.3506 37.3496C41.973 36.103 42.5949 34.8557 43.2158 33.6084C44.0748 31.8832 44.9368 30.1588 45.7988 28.4346C46.286 27.458 46.7735 26.4816 47.2754 25.4756C47.7005 24.6691 48.0052 24.0915 48.2803 23.6621C48.5524 23.2374 48.7697 22.9995 49.001 22.8467C49.2292 22.6958 49.5142 22.5993 49.9727 22.5361C50.44 22.4717 51.0392 22.4476 51.8857 22.4141C53.1305 22.4193 54.3757 22.4243 55.6582 22.4297Z" fill="#182C66" stroke="white"/>
<path d="M55.6582 22.4297H55.6592C56.6558 22.4318 56.656 22.4324 57.6729 22.4346C59.8014 22.4402 61.93 22.4521 64.0596 22.4648H64.0605C65.5012 22.4699 66.9421 22.4744 68.3828 22.4785C71.8217 22.4893 75.2611 22.5056 78.7002 22.5254C83.6332 31.6095 88.3284 40.7671 92.7354 50.1162C97.9877 61.2425 103.628 72.1452 109.318 83.04C112.574 89.274 115.748 95.5451 118.864 101.851V101.852C120.015 104.169 121.184 106.478 122.367 108.778V108.779L124.055 112.068L124.056 112.07C124.538 113.001 125.02 113.932 125.518 114.891C126.035 116.073 126.264 116.603 126.38 117.203C126.484 117.743 126.497 118.346 126.499 119.527H100.315C99.0408 116.858 97.7644 114.187 96.4512 111.438L96.4502 111.437L95.1855 108.804H95.1865C94.8617 108.119 94.5368 107.433 94.2021 106.728L94.2012 106.727L93.1943 104.618C92.8221 103.712 92.663 103.319 92.583 102.906C92.5025 102.491 92.5 102.047 92.5 101.027V100.527H34.5898L34.5098 100.93C34.1835 102.561 33.8565 104.192 33.5205 105.872C32.3908 108.333 31.2398 110.714 29.9941 113.109L29.9932 113.111C28.904 115.23 27.8149 117.349 26.6953 119.527H0.694336C1.67568 116.584 2.18932 115.058 2.63574 113.938C3.10856 112.751 3.50389 112.025 4.32227 110.524L4.32324 110.522C4.68676 109.847 5.0493 109.171 5.42383 108.475C5.79961 107.787 6.17631 107.101 6.56348 106.393L6.56445 106.392C10.5835 98.9989 14.3538 91.4926 18.0957 83.9678C22.5201 75.0755 26.9589 66.1905 31.3955 57.3037C33.0719 53.9457 34.7468 50.5868 36.4209 47.2275C38.0622 43.9341 39.706 40.6415 41.3506 37.3496C41.973 36.103 42.5949 34.8557 43.2158 33.6084C44.0748 31.8832 44.9368 30.1588 45.7988 28.4346C46.286 27.458 46.7735 26.4816 47.2754 25.4756C47.7005 24.6691 48.0052 24.0915 48.2803 23.6621C48.5524 23.2374 48.7697 22.9995 49.001 22.8467C49.2292 22.6958 49.5142 22.5993 49.9727 22.5361C50.44 22.4717 51.0392 22.4476 51.8857 22.4141C53.1305 22.4193 54.3757 22.4243 55.6582 22.4297Z" fill="#182C66" stroke="white"/>
<path d="M289.937 20.2529C292.227 20.2489 294.517 20.261 296.81 20.2764H296.812C297.984 20.28 297.984 20.2805 299.18 20.2842C310.88 20.3271 322.37 20.7403 333.924 22.5205H333.925C335.674 22.7888 335.677 22.7885 337.456 23.0615V23.0625C341.085 23.6735 342.85 23.9718 343.872 24.2686C344.369 24.4129 344.659 24.5483 344.891 24.7041C345.095 24.8416 345.267 25.0063 345.51 25.2471C345.587 26.6582 345.607 28.0753 345.598 29.4961V29.4971C345.593 30.845 345.593 30.8461 345.588 32.2197L345.562 35.085V35.0869L345.549 37.9639C345.538 40.1198 345.522 42.2757 345.504 44.4316C344.978 44.3398 344.448 44.2478 343.907 44.1533H343.906C328.161 40.9378 320.233 39.3177 312.334 38.9883C304.431 38.6587 296.564 39.6212 280.939 41.5303L280.804 41.5469L280.696 41.6299C279.68 42.4095 278.914 43.0565 278.33 43.8457C277.739 44.6447 277.357 45.5588 277.046 46.8467L277.032 46.9004L277.031 46.9561L277 49.0186C276.954 50.0249 276.954 50.0299 276.907 51.0664L276.904 51.1309L276.917 51.1934C277.138 52.2301 277.27 52.8986 277.689 53.4561C277.901 53.7366 278.169 53.9727 278.51 54.2217C278.848 54.4686 279.284 54.7475 279.84 55.1035L279.868 55.1221L279.898 55.1367C283.197 56.6703 286.119 57.3801 289.661 58.0186C290.331 58.1396 291.002 58.261 291.692 58.3857L291.696 58.3867C299.48 59.7263 307.333 60.5866 315.163 61.4326V61.4336C326.746 62.7201 339.292 64.9267 347.236 73.9678C352.41 80.6522 353.52 88.5652 352.508 96.9258C350.377 104.501 347.564 110.626 340.756 114.59C328.429 121.048 315.537 121.87 301.747 121.787L298.578 121.785C297.522 121.788 296.467 121.792 295.412 121.799C281.204 121.815 268.105 119.826 254.519 115.661C254.833 109.366 255.149 103.067 255.473 96.5908C261.8 97.3993 267.872 98.4851 274.116 99.7969L274.126 99.7988C282.832 101.454 291.185 101.708 299.995 101.713V101.714L303.729 101.751H303.733C310.216 101.761 315.884 101.452 322.135 99.5078C323.461 99.1684 324.789 98.8354 326.118 98.5127L326.423 98.4385L326.489 98.1318C327.146 95.089 327.587 92.1685 327.5 89.0127L327.496 88.8613L327.408 88.7373L327.225 88.4863C325.3 85.9333 322.482 84.5095 319.475 83.5752C316.389 82.6166 312.991 82.1446 310.104 81.5371L310.091 81.5342L310.078 81.5322L307.711 81.1729C302.185 80.36 296.64 79.7247 291.105 79.0693H291.106C284.479 78.2447 279.521 77.6277 275.682 77.0059C271.84 76.3837 269.149 75.7617 267.045 74.9355C262.884 73.3017 260.964 70.8595 256.964 65.7285C251.758 58.3661 251.899 50.9712 252.496 42.0918C253.62 36.2519 257.848 31.4022 262.3 27.4287C270.196 22.3441 278.414 20.277 287.771 20.2607H287.771C288.486 20.258 289.2 20.2557 289.937 20.2529Z" fill="#1A2F6A" stroke="white"/>
<path d="M289.937 20.2529C292.227 20.2489 294.517 20.261 296.81 20.2764H296.812C297.984 20.28 297.984 20.2805 299.18 20.2842C310.88 20.3271 322.37 20.7403 333.924 22.5205H333.925C335.674 22.7888 335.677 22.7885 337.456 23.0615V23.0625C341.085 23.6735 342.85 23.9718 343.872 24.2686C344.369 24.4129 344.659 24.5483 344.891 24.7041C345.095 24.8416 345.267 25.0063 345.51 25.2471C345.587 26.6582 345.607 28.0753 345.598 29.4961V29.4971C345.593 30.845 345.593 30.8461 345.588 32.2197L345.562 35.085V35.0869L345.549 37.9639C345.538 40.1198 345.522 42.2757 345.504 44.4316C344.978 44.3398 344.448 44.2478 343.907 44.1533H343.906C328.161 40.9378 320.233 39.3177 312.334 38.9883C304.431 38.6587 296.564 39.6212 280.939 41.5303L280.804 41.5469L280.696 41.6299C279.68 42.4095 278.914 43.0565 278.33 43.8457C277.739 44.6447 277.357 45.5588 277.046 46.8467L277.032 46.9004L277.031 46.9561L277 49.0186C276.954 50.0249 276.954 50.0299 276.907 51.0664L276.904 51.1309L276.917 51.1934C277.138 52.2301 277.27 52.8986 277.689 53.4561C277.901 53.7366 278.169 53.9727 278.51 54.2217C278.848 54.4686 279.284 54.7475 279.84 55.1035L279.868 55.1221L279.898 55.1367C283.197 56.6703 286.119 57.3801 289.661 58.0186C290.331 58.1396 291.002 58.261 291.692 58.3857L291.696 58.3867C299.48 59.7263 307.333 60.5866 315.163 61.4326V61.4336C326.746 62.7201 339.292 64.9267 347.236 73.9678C352.41 80.6522 353.52 88.5652 352.508 96.9258C350.377 104.501 347.564 110.626 340.756 114.59C328.429 121.048 315.537 121.87 301.747 121.787L298.578 121.785C297.522 121.788 296.467 121.792 295.412 121.799C281.204 121.815 268.105 119.826 254.519 115.661C254.833 109.366 255.149 103.067 255.473 96.5908C261.8 97.3993 267.872 98.4851 274.116 99.7969L274.126 99.7988C282.832 101.454 291.185 101.708 299.995 101.713V101.714L303.729 101.751H303.733C310.216 101.761 315.884 101.452 322.135 99.5078C323.461 99.1684 324.789 98.8354 326.118 98.5127L326.423 98.4385L326.489 98.1318C327.146 95.089 327.587 92.1685 327.5 89.0127L327.496 88.8613L327.408 88.7373L327.225 88.4863C325.3 85.9333 322.482 84.5095 319.475 83.5752C316.389 82.6166 312.991 82.1446 310.104 81.5371L310.091 81.5342L310.078 81.5322L307.711 81.1729C302.185 80.36 296.64 79.7247 291.105 79.0693H291.106C284.479 78.2447 279.521 77.6277 275.682 77.0059C271.84 76.3837 269.149 75.7617 267.045 74.9355C262.884 73.3017 260.964 70.8595 256.964 65.7285C251.758 58.3661 251.899 50.9712 252.496 42.0918C253.62 36.2519 257.848 31.4022 262.3 27.4287C270.196 22.3441 278.414 20.277 287.771 20.2607H287.771C288.486 20.258 289.2 20.2557 289.937 20.2529Z" fill="#1A2F6A" stroke="white"/>
<path d="M518.707 44.2314C525.816 41.0904 534.541 39.9316 543.077 40.7002C551.596 41.4672 559.885 44.151 566.163 48.6514C569.643 52.4874 571.804 56.1992 573.083 60.207C574.367 64.2305 574.771 68.5779 574.703 73.6914C574.147 82.7264 570.437 88.5618 563.687 94.6348C553.44 102.023 538.39 101.659 526.271 99.7822C518.237 98.1092 510.653 94.485 505.981 87.6436C501.407 79.4648 500.225 70.3583 502.687 61.2754C505.727 53.2217 510.893 47.9037 518.707 44.2314Z" fill="#FBFCFD" stroke="white"/>
<path d="M518.707 44.2314C525.816 41.0904 534.541 39.9316 543.077 40.7002C551.596 41.4672 559.885 44.151 566.163 48.6514C569.643 52.4874 571.804 56.1992 573.083 60.207C574.367 64.2305 574.771 68.5779 574.703 73.6914C574.147 82.7264 570.437 88.5618 563.687 94.6348C553.44 102.023 538.39 101.659 526.271 99.7822C518.237 98.1092 510.653 94.485 505.981 87.6436C501.407 79.4648 500.225 70.3583 502.687 61.2754C505.727 53.2217 510.893 47.9037 518.707 44.2314Z" fill="#FBFCFD" stroke="white"/>
<path d="M668.696 40.6055C678.66 40.5271 688.663 43.1149 696.196 48.1133C701.024 52.1315 704.377 57.8943 705.502 64.0889C706.058 74.0054 705.692 81.9154 699.463 89.7705C690.7 98.932 680.086 100.472 667.804 100.839C657.327 100.733 648.183 98.4379 640.154 91.5977C633.906 84.9023 633.05 76.7224 633.132 67.8789L633.16 66.0996C633.553 59.1342 636.507 53.81 641.574 49.0322C648.856 43.429 658.729 40.684 668.696 40.6055Z" fill="#FBFCFD" stroke="white"/>
<path d="M668.696 40.6055C678.66 40.5271 688.663 43.1149 696.196 48.1133C701.024 52.1315 704.377 57.8943 705.502 64.0889C706.058 74.0054 705.692 81.9154 699.463 89.7705C690.7 98.932 680.086 100.472 667.804 100.839C657.327 100.733 648.183 98.4379 640.154 91.5977C633.906 84.9023 633.05 76.7224 633.132 67.8789L633.16 66.0996C633.553 59.1342 636.507 53.81 641.574 49.0322C648.856 43.429 658.729 40.684 668.696 40.6055Z" fill="#FBFCFD" stroke="white"/>
<path d="M187.732 42.3008C195.484 42.2987 203.322 43.8979 209.673 48.4082C212.797 51.6356 215.066 54.7334 216.562 58.1387C218.063 61.5528 218.797 65.3028 218.812 69.8408C218.642 78.8052 217.05 85.2813 210.885 91.8652C203.019 98.1847 193.327 99.6646 183.416 99.625H183.415C181.489 99.6213 181.488 99.621 179.523 99.6172H179.524C177.909 99.6081 176.293 99.5992 174.628 99.5898H174.627C169.632 99.5699 164.637 99.5498 159.5 99.5293V42.5234C164.945 42.4834 170.394 42.4436 176.004 42.4023H176.005C177.759 42.3841 179.514 42.3654 181.321 42.3467L181.32 42.3457C182.735 42.3399 184.15 42.3362 185.564 42.332H185.569C186.283 42.3218 186.997 42.3113 187.732 42.3008Z" fill="#FCFCFC" stroke="white"/>
<g filter="url(#filter0_d_368_7283)">
<path d="M159 42.0271C164.61 41.9859 170.22 41.9446 176 41.9021C177.754 41.8839 179.509 41.8657 181.316 41.8469C182.732 41.8411 184.147 41.836 185.562 41.8318C186.277 41.8216 186.992 41.8113 187.729 41.8008C195.558 41.7981 203.528 43.4151 210 48.0271C216.335 54.561 219.282 60.6511 219.312 69.8396C219.141 78.8959 217.527 85.5181 211.227 92.2341C203.222 98.6798 193.377 100.165 183.414 100.125C181.487 100.121 181.487 100.121 179.522 100.117C177.906 100.108 176.29 100.099 174.625 100.09C169.469 100.069 164.312 100.048 159 100.027C159 80.8871 159 61.7471 159 42.0271Z" fill="#FCFCFC"/>
<path d="M187.732 42.3008C195.484 42.2987 203.322 43.8979 209.673 48.4082C212.797 51.6356 215.066 54.7334 216.562 58.1387C218.063 61.5528 218.797 65.3028 218.812 69.8408C218.642 78.8052 217.05 85.2813 210.885 91.8652C203.019 98.1847 193.327 99.6646 183.416 99.625H183.415C181.489 99.6213 181.488 99.621 179.523 99.6172H179.524C177.909 99.6081 176.293 99.5992 174.628 99.5898H174.627C169.632 99.5699 164.637 99.5498 159.5 99.5293V42.5234C164.945 42.4834 170.394 42.4436 176.004 42.4023H176.005C177.759 42.3841 179.514 42.3654 181.321 42.3467L181.32 42.3457C182.735 42.3399 184.15 42.3362 185.564 42.332H185.569C186.283 42.3218 186.997 42.3113 187.732 42.3008Z" stroke="white"/>
</g>
<path d="M423.542 78.3008C430.362 78.2997 436.383 78.4922 441.609 82.915C442.668 84.7432 443.329 86.1853 443.704 87.6738C444.08 89.1673 444.175 90.7364 444.069 92.8242C443.109 96.3629 441.003 97.5122 437.758 99.5879C435.471 100.727 434.071 100.648 431.368 100.641C430.408 100.641 429.447 100.641 428.458 100.641C427.419 100.635 426.379 100.63 425.308 100.625H425.306C424.243 100.624 423.181 100.623 422.086 100.621C418.683 100.615 415.28 100.603 411.877 100.59H411.876C409.573 100.585 407.269 100.58 404.966 100.576C399.477 100.566 393.989 100.547 388.5 100.528V78.5234C391.323 78.5019 394.146 78.4815 396.969 78.4639L405.935 78.418C407.966 78.4079 409.998 78.3943 412.029 78.377C414.957 78.3525 417.885 78.3408 420.814 78.332H420.818C422.167 78.3166 422.167 78.3166 423.542 78.3008Z" fill="#F7F9FC" stroke="white"/>
<path d="M423.542 78.3008C430.362 78.2997 436.383 78.4922 441.609 82.915C442.668 84.7432 443.329 86.1853 443.704 87.6738C444.08 89.1673 444.175 90.7364 444.069 92.8242C443.109 96.3629 441.003 97.5122 437.758 99.5879C435.471 100.727 434.071 100.648 431.368 100.641C430.408 100.641 429.447 100.641 428.458 100.641C427.419 100.635 426.379 100.63 425.308 100.625H425.306C424.243 100.624 423.181 100.623 422.086 100.621C418.683 100.615 415.28 100.603 411.877 100.59H411.876C409.573 100.585 407.269 100.58 404.966 100.576C399.477 100.566 393.989 100.547 388.5 100.528V78.5234C391.323 78.5019 394.146 78.4815 396.969 78.4639L405.935 78.418C407.966 78.4079 409.998 78.3943 412.029 78.377C414.957 78.3525 417.885 78.3408 420.814 78.332H420.818C422.167 78.3166 422.167 78.3166 423.542 78.3008Z" fill="#F7F9FC" stroke="white"/>
<path d="M424.618 40.1875C429.791 40.1865 433.29 40.5929 437.683 43.418C438.839 44.578 439.338 45.2639 439.586 46.0107C439.844 46.7893 439.847 47.6726 439.875 49.3271C439.833 50.9764 439.745 52.0914 439.477 53.1543C439.213 54.1943 438.768 55.2102 437.98 56.6416C432.811 61.0861 426.965 60.8009 420.232 60.7227H420.229C419.305 60.7198 418.381 60.7168 417.43 60.7139C414.497 60.7027 411.563 60.6778 408.629 60.6523H408.628C406.632 60.6423 404.635 60.6332 402.639 60.625C397.926 60.6054 393.214 60.5672 388.5 60.5303V40.5215C392.952 40.472 397.404 40.4276 401.855 40.3936L406.473 40.3623C408.567 40.3472 410.661 40.3268 412.755 40.3008C415.766 40.2643 418.778 40.2476 421.791 40.2344H421.798C422.729 40.2189 423.659 40.2034 424.618 40.1875Z" fill="#F1F5FB" stroke="white"/>
<path d="M424.618 40.1875C429.791 40.1865 433.29 40.5929 437.683 43.418C438.839 44.578 439.338 45.2639 439.586 46.0107C439.844 46.7893 439.847 47.6726 439.875 49.3271C439.833 50.9764 439.745 52.0914 439.477 53.1543C439.213 54.1943 438.768 55.2102 437.98 56.6416C432.811 61.0861 426.965 60.8009 420.232 60.7227H420.229C419.305 60.7198 418.381 60.7168 417.43 60.7139C414.497 60.7027 411.563 60.6778 408.629 60.6523H408.628C406.632 60.6423 404.635 60.6332 402.639 60.625C397.926 60.6054 393.214 60.5672 388.5 60.5303V40.5215C392.952 40.472 397.404 40.4276 401.855 40.3936L406.473 40.3623C408.567 40.3472 410.661 40.3268 412.755 40.3008C415.766 40.2643 418.778 40.2476 421.791 40.2344H421.798C422.729 40.2189 423.659 40.2034 424.618 40.1875Z" fill="#F1F5FB" stroke="white"/>
<path d="M64.6797 44.5273C65.008 45.2373 65.3377 45.9495 65.6758 46.6807C67.0764 49.7079 68.4785 52.7344 69.8809 55.7607C70.4844 57.0638 71.0877 58.3674 71.6904 59.6709C72.5631 61.5581 73.4367 63.4449 74.3115 65.3311L75.167 67.1758C76.3255 69.6643 77.5126 72.134 78.7383 74.5879L79.9766 77.0371C80.7727 78.6608 81.1421 79.4175 81.3242 80.0195C81.4651 80.4856 81.4925 80.8553 81.498 81.5273H45.7441C47.3521 77.5796 49.1307 73.8119 51.0703 70.0039L51.0713 70.0029C55.3232 61.5862 59.3423 53.0691 63.3184 44.5273H64.6797Z" fill="#F4F5F8" stroke="white"/>
<path d="M841.391 7.52734C841.142 8.77013 840.892 10.0161 840.638 11.2871L840.581 11.2588C840.579 11.2576 840.577 11.2561 840.574 11.2549L840.543 11.2393C840.54 11.238 840.538 11.2376 840.535 11.2363L840.473 11.2051C840.47 11.2039 840.468 11.2023 840.466 11.2012L840.364 11.1504C840.362 11.1492 840.36 11.1477 840.357 11.1465L840.318 11.127C840.316 11.1257 840.313 11.1253 840.311 11.124L840.248 11.0928C840.246 11.0916 840.244 11.09 840.241 11.0889L840.124 11.0303C840.122 11.0291 840.12 11.0275 840.117 11.0264L840.078 11.0068C840.076 11.0056 840.073 11.0051 840.07 11.0039L839.992 10.9648C839.99 10.9637 839.988 10.9621 839.985 10.9609L839.845 10.8906C839.842 10.8895 839.84 10.8879 839.838 10.8867L839.791 10.8633C839.789 10.862 839.786 10.8616 839.783 10.8604L839.682 10.8096C839.679 10.8084 839.677 10.8068 839.675 10.8057L839.479 10.708C839.477 10.7068 839.475 10.7053 839.473 10.7041L839.395 10.665C839.392 10.6638 839.389 10.6633 839.387 10.6621L839.168 10.5527C839.166 10.5516 839.163 10.55 839.161 10.5488L838.708 10.3223C838.705 10.321 838.702 10.3197 838.699 10.3184L838.504 10.2207C838.501 10.2194 838.499 10.2171 838.496 10.2158L838.426 10.1807C838.423 10.1794 838.42 10.1781 838.417 10.1768L838.253 10.0947C838.25 10.0934 838.247 10.0921 838.244 10.0908L838.166 10.0518C838.163 10.0504 838.161 10.0482 838.158 10.0469L838.119 10.0273C838.117 10.026 838.113 10.0248 838.11 10.0234L838.009 9.97266C838.006 9.97134 838.003 9.97006 838 9.96875L837.945 9.94141C837.943 9.94009 837.94 9.93784 837.938 9.93652L837.914 9.9248C837.911 9.92349 837.908 9.92221 837.905 9.9209L837.827 9.88184C837.825 9.88052 837.821 9.87925 837.818 9.87793L837.771 9.85449C837.769 9.85317 837.766 9.85093 837.764 9.84961L837.748 9.8418C837.745 9.84048 837.742 9.83921 837.739 9.83789L837.669 9.80273C837.666 9.80141 837.663 9.80015 837.66 9.79883L837.629 9.7832C837.626 9.78188 837.624 9.77964 837.621 9.77832L837.611 9.77344C837.859 9.03125 838.107 8.28682 838.36 7.52734H841.391Z" fill="#1F66D4" stroke="white"/>
<path d="M841.391 7.52734C841.142 8.77013 840.892 10.0161 840.638 11.2871L840.581 11.2588C840.579 11.2576 840.577 11.2561 840.574 11.2549L840.543 11.2393C840.54 11.238 840.538 11.2376 840.535 11.2363L840.473 11.2051C840.47 11.2039 840.468 11.2023 840.466 11.2012L840.364 11.1504C840.362 11.1492 840.36 11.1477 840.357 11.1465L840.318 11.127C840.316 11.1257 840.313 11.1253 840.311 11.124L840.248 11.0928C840.246 11.0916 840.244 11.09 840.241 11.0889L840.124 11.0303C840.122 11.0291 840.12 11.0275 840.117 11.0264L840.078 11.0068C840.076 11.0056 840.073 11.0051 840.07 11.0039L839.992 10.9648C839.99 10.9637 839.988 10.9621 839.985 10.9609L839.845 10.8906C839.842 10.8895 839.84 10.8879 839.838 10.8867L839.791 10.8633C839.789 10.862 839.786 10.8616 839.783 10.8604L839.682 10.8096C839.679 10.8084 839.677 10.8068 839.675 10.8057L839.479 10.708C839.477 10.7068 839.475 10.7053 839.473 10.7041L839.395 10.665C839.392 10.6638 839.389 10.6633 839.387 10.6621L839.168 10.5527C839.166 10.5516 839.163 10.55 839.161 10.5488L838.708 10.3223C838.705 10.321 838.702 10.3197 838.699 10.3184L838.504 10.2207C838.501 10.2194 838.499 10.2171 838.496 10.2158L838.426 10.1807C838.423 10.1794 838.42 10.1781 838.417 10.1768L838.253 10.0947C838.25 10.0934 838.247 10.0921 838.244 10.0908L838.166 10.0518C838.163 10.0504 838.161 10.0482 838.158 10.0469L838.119 10.0273C838.117 10.026 838.113 10.0248 838.11 10.0234L838.009 9.97266C838.006 9.97134 838.003 9.97006 838 9.96875L837.945 9.94141C837.943 9.94009 837.94 9.93784 837.938 9.93652L837.914 9.9248C837.911 9.92349 837.908 9.92221 837.905 9.9209L837.827 9.88184C837.825 9.88052 837.821 9.87925 837.818 9.87793L837.771 9.85449C837.769 9.85317 837.766 9.85093 837.764 9.84961L837.748 9.8418C837.745 9.84048 837.742 9.83921 837.739 9.83789L837.669 9.80273C837.666 9.80141 837.663 9.80015 837.66 9.79883L837.629 9.7832C837.626 9.78188 837.624 9.77964 837.621 9.77832L837.611 9.77344C837.859 9.03125 838.107 8.28682 838.36 7.52734H841.391Z" fill="#1F66D4" stroke="white"/>
<defs>
<filter id="filter0_d_368_7283" x="155" y="41.8008" width="68.3125" height="66.3242" filterUnits="userSpaceOnUse" color-interpolation-filters="sRGB">
<feFlood flood-opacity="0" result="BackgroundImageFix"/>
<feColorMatrix in="SourceAlpha" type="matrix" values="0 0 0 0 0 0 0 0 0 0 0 0 0 0 0 0 0 0 127 0" result="hardAlpha"/>
<feOffset dy="4"/>
<feGaussianBlur stdDeviation="2"/>
<feComposite in2="hardAlpha" operator="out"/>
<feColorMatrix type="matrix" values="0 0 0 0 0 0 0 0 0 0 0 0 0 0 0 0 0 0 0.25 0"/>
<feBlend mode="normal" in2="BackgroundImageFix" result="effect1_dropShadow_368_7283"/>
<feBlend mode="normal" in="SourceGraphic" in2="effect1_dropShadow_368_7283" result="shape"/>
</filter>
</defs>
</svg>
