<svg width="895" height="123" viewBox="0 0 895 123" fill="none" xmlns="http://www.w3.org/2000/svg">
<path d="M895 0.0276814C892.592 8.50141 889.761 16.8263 886.866 25.1436C886.327 26.702 885.793 28.2622 885.264 29.8243C884.492 32.1037 883.703 34.3766 882.91 36.6488C882.678 37.3456 882.445 38.0425 882.206 38.7605C880.833 42.6242 879.684 45.0582 876 47.0277C875.34 47.0277 874.68 47.0277 874 47.0277C873.322 45.4699 872.658 43.9062 872 42.3402C871.629 41.4701 871.258 40.5999 870.875 39.7035C869.981 36.9705 869.836 34.8807 870 32.0277C850.242 43.3548 830.699 55.0331 811.372 67.0799C810.153 67.8391 810.153 67.8391 808.91 68.6136C807.845 69.2795 807.845 69.2795 806.758 69.9588C805 71.0277 805 71.0277 803 72.0277C809.71 77.6575 816.576 83.0061 823.602 88.2318C829.551 92.6658 835.405 97.2141 841.248 101.787C847.172 106.413 853.17 110.933 859.227 115.385C860.835 116.576 862.42 117.799 864 119.028C864 119.358 864 119.688 864 120.028C858.56 120.328 853.125 120.544 847.679 120.687C845.834 120.747 843.989 120.828 842.146 120.933C825.216 121.871 825.216 121.871 817.893 115.935C815.667 113.896 813.573 111.767 811.515 109.559C809 107.017 806.18 104.974 803.312 102.84C798.256 99.0204 793.323 95.0716 788.438 91.0355C787.633 90.3729 786.829 89.7103 786 89.0277C785.121 88.2826 784.242 87.5375 783.336 86.7699C781.168 84.791 781.168 84.791 778.625 85.0277C777.326 85.5227 777.326 85.5227 776 86.0277C774.81 86.3938 773.62 86.7599 772.395 87.1371C770.418 88.1403 770.418 88.1403 769 90.0277C767.933 95.0913 768.019 100.13 768.062 105.278C768.049 106.705 768.033 108.132 768.014 109.559C767.967 113.051 767.985 116.534 768 120.028C759.75 120.028 751.5 120.028 743 120.028C743 87.6877 743 55.3477 743 22.0277C750.92 22.0277 758.84 22.0277 767 22.0277C767 36.5477 767 51.0677 767 66.0277C776.397 61.4027 776.397 61.4027 785.312 56.2152C786.394 55.5371 787.476 54.8591 788.59 54.1605C789.145 53.8115 789.701 53.4625 790.273 53.1029C793.285 51.228 796.33 49.4103 799.375 47.5902C800.01 47.2102 800.645 46.8303 801.299 46.4388C802.581 45.6717 803.863 44.9048 805.146 44.138C806.877 43.1012 808.607 42.0607 810.336 41.0199C811.463 40.3418 812.589 39.6638 813.75 38.9652C814.327 38.6171 814.905 38.2691 815.5 37.9105C819.343 35.6017 823.201 33.3199 827.069 31.0541C829.549 29.6013 832.026 28.1447 834.504 26.6881C835.749 25.9576 836.995 25.229 838.243 24.5023C840.006 23.475 841.765 22.4415 843.523 21.4066C844.554 20.804 845.584 20.2015 846.646 19.5807C849.101 18.2429 849.101 18.2429 850 16.0277C849.154 15.7802 848.309 15.5327 847.438 15.2777C843.616 13.8879 840.481 12.1165 837 10.0277C837.33 9.03768 837.66 8.04768 838 7.02768C851.238 5.02602 864.479 3.04782 877.75 1.27768C878.682 1.15031 879.614 1.02293 880.574 0.891695C885.432 0.255526 890.102 -0.106153 895 0.0276814Z" fill="#0356CD"/>
<path d="M895 0.0276814C892.592 8.50141 889.761 16.8263 886.866 25.1436C886.327 26.702 885.793 28.2622 885.264 29.8243C884.492 32.1037 883.703 34.3766 882.91 36.6488C882.678 37.3456 882.445 38.0425 882.206 38.7605C880.833 42.6242 879.684 45.0582 876 47.0277C875.34 47.0277 874.68 47.0277 874 47.0277C873.322 45.4699 872.658 43.9062 872 42.3402C871.629 41.4701 871.258 40.5999 870.875 39.7035C869.981 36.9705 869.836 34.8807 870 32.0277C850.242 43.3548 830.699 55.0331 811.372 67.0799C810.153 67.8391 810.153 67.8391 808.91 68.6136C807.845 69.2795 807.845 69.2795 806.758 69.9588C805 71.0277 805 71.0277 803 72.0277C809.71 77.6575 816.576 83.0061 823.602 88.2318C829.551 92.6658 835.405 97.2141 841.248 101.787C847.172 106.413 853.17 110.933 859.227 115.385C860.835 116.576 862.42 117.799 864 119.028C864 119.358 864 119.688 864 120.028C858.56 120.328 853.125 120.544 847.679 120.687C845.834 120.747 843.989 120.828 842.146 120.933C825.216 121.871 825.216 121.871 817.893 115.935C815.667 113.896 813.573 111.767 811.515 109.559C809 107.017 806.18 104.974 803.312 102.84C798.256 99.0204 793.323 95.0716 788.438 91.0355C787.633 90.3729 786.829 89.7103 786 89.0277C785.121 88.2826 784.242 87.5375 783.336 86.7699C781.168 84.791 781.168 84.791 778.625 85.0277C777.326 85.5227 777.326 85.5227 776 86.0277C774.81 86.3938 773.62 86.7599 772.395 87.1371C770.418 88.1403 770.418 88.1403 769 90.0277C767.933 95.0913 768.019 100.13 768.062 105.278C768.049 106.705 768.033 108.132 768.014 109.559C767.967 113.051 767.985 116.534 768 120.028C759.75 120.028 751.5 120.028 743 120.028C743 87.6877 743 55.3477 743 22.0277C750.92 22.0277 758.84 22.0277 767 22.0277C767 36.5477 767 51.0677 767 66.0277C776.397 61.4027 776.397 61.4027 785.312 56.2152C786.394 55.5371 787.476 54.8591 788.59 54.1605C789.145 53.8115 789.701 53.4625 790.273 53.1029C793.285 51.228 796.33 49.4103 799.375 47.5902C800.01 47.2102 800.645 46.8303 801.299 46.4388C802.581 45.6717 803.863 44.9048 805.146 44.138C806.877 43.1012 808.607 42.0607 810.336 41.0199C811.463 40.3418 812.589 39.6638 813.75 38.9652C814.327 38.6171 814.905 38.2691 815.5 37.9105C819.343 35.6017 823.201 33.3199 827.069 31.0541C829.549 29.6013 832.026 28.1447 834.504 26.6881C835.749 25.9576 836.995 25.229 838.243 24.5023C840.006 23.475 841.765 22.4415 843.523 21.4066C844.554 20.804 845.584 20.2015 846.646 19.5807C849.101 18.2429 849.101 18.2429 850 16.0277C849.154 15.7802 848.309 15.5327 847.438 15.2777C843.616 13.8879 840.481 12.1165 837 10.0277C837.33 9.03768 837.66 8.04768 838 7.02768C851.238 5.02602 864.479 3.04782 877.75 1.27768C878.682 1.15031 879.614 1.02293 880.574 0.891695C885.432 0.255526 890.102 -0.106153 895 0.0276814Z" fill="#0356CD"/>
<path d="M287.77 19.761C288.484 19.7583 289.199 19.7555 289.935 19.7527C292.228 19.7487 294.52 19.7612 296.813 19.7766C297.985 19.7803 297.985 19.7803 299.182 19.784C310.891 19.8269 322.41 20.2407 334 22.0266C335.752 22.2954 335.752 22.2954 337.539 22.5696C344.759 23.785 344.759 23.785 346 25.0266C346.087 26.5153 346.107 28.0081 346.098 29.4993C346.093 30.8479 346.093 30.8479 346.088 32.2239C346.076 33.6422 346.076 33.6422 346.063 35.0891C346.058 36.0385 346.054 36.9879 346.049 37.9661C346.037 40.3196 346.021 42.6731 346 45.0266C345.281 44.9011 344.562 44.7756 343.821 44.6462C312.28 38.2047 312.28 38.2047 281 42.0266C278.973 43.5817 278.135 44.4682 277.531 46.9641C277.521 47.6447 277.511 48.3254 277.5 49.0266C277.454 50.0475 277.454 50.0475 277.406 51.0891C277.866 53.2454 277.866 53.2454 280.11 54.6829C283.353 56.1907 286.227 56.8916 289.75 57.5266C290.421 57.6477 291.091 57.7688 291.781 57.8935C299.548 59.2301 307.385 60.0905 315.218 60.9368C326.793 62.2224 339.54 64.4365 347.625 73.6516C352.92 80.4872 354.031 88.5671 353 97.0266C350.857 104.659 347.996 110.958 341 115.027C328.555 121.551 315.552 122.37 301.744 122.287C299.634 122.277 297.525 122.287 295.414 122.3C281.026 122.316 267.766 120.284 254 116.027C254.33 109.427 254.66 102.827 255 96.0266C261.538 96.8438 267.789 97.9571 274.219 99.3079C282.879 100.954 291.195 101.209 300 101.214C301.233 101.226 302.465 101.239 303.735 101.251C310.206 101.262 315.817 100.952 322 99.0266C323.332 98.6859 324.665 98.3508 326 98.0266C326.653 95.0026 327.086 92.126 327 89.0266C323.33 83.8608 315.875 83.2626 310 82.0266C303.703 81.0367 297.375 80.3152 291.045 79.5657C264.548 76.2687 264.548 76.2687 256.563 66.0266C251.233 58.4951 251.401 50.9245 252 42.0266C253.151 35.9889 257.513 31.0266 262 27.0266C269.996 21.8696 278.32 19.7773 287.77 19.761Z" fill="#1A2F6A"/>
<path d="M287.77 19.761C288.484 19.7583 289.199 19.7555 289.935 19.7527C292.228 19.7487 294.52 19.7612 296.813 19.7766C297.985 19.7803 297.985 19.7803 299.182 19.784C310.891 19.8269 322.41 20.2407 334 22.0266C335.752 22.2954 335.752 22.2954 337.539 22.5696C344.759 23.785 344.759 23.785 346 25.0266C346.087 26.5153 346.107 28.0081 346.098 29.4993C346.093 30.8479 346.093 30.8479 346.088 32.2239C346.076 33.6422 346.076 33.6422 346.063 35.0891C346.058 36.0385 346.054 36.9879 346.049 37.9661C346.037 40.3196 346.021 42.6731 346 45.0266C345.281 44.9011 344.562 44.7756 343.821 44.6462C312.28 38.2047 312.28 38.2047 281 42.0266C278.973 43.5817 278.135 44.4682 277.531 46.9641C277.521 47.6447 277.511 48.3254 277.5 49.0266C277.454 50.0475 277.454 50.0475 277.406 51.0891C277.866 53.2454 277.866 53.2454 280.11 54.6829C283.353 56.1907 286.227 56.8916 289.75 57.5266C290.421 57.6477 291.091 57.7688 291.781 57.8935C299.548 59.2301 307.385 60.0905 315.218 60.9368C326.793 62.2224 339.54 64.4365 347.625 73.6516C352.92 80.4872 354.031 88.5671 353 97.0266C350.857 104.659 347.996 110.958 341 115.027C328.555 121.551 315.552 122.37 301.744 122.287C299.634 122.277 297.525 122.287 295.414 122.3C281.026 122.316 267.766 120.284 254 116.027C254.33 109.427 254.66 102.827 255 96.0266C261.538 96.8438 267.789 97.9571 274.219 99.3079C282.879 100.954 291.195 101.209 300 101.214C301.233 101.226 302.465 101.239 303.735 101.251C310.206 101.262 315.817 100.952 322 99.0266C323.332 98.6859 324.665 98.3508 326 98.0266C326.653 95.0026 327.086 92.126 327 89.0266C323.33 83.8608 315.875 83.2626 310 82.0266C303.703 81.0367 297.375 80.3152 291.045 79.5657C264.548 76.2687 264.548 76.2687 256.563 66.0266C251.233 58.4951 251.401 50.9245 252 42.0266C253.151 35.9889 257.513 31.0266 262 27.0266C269.996 21.8696 278.32 19.7773 287.77 19.761Z" fill="#1A2F6A"/>
<path fill-rule="evenodd" clip-rule="evenodd" d="M542.85 20.0001C560.233 19.974 575.636 24.7461 588.687 36.5353C593.032 41.0718 595.562 46.682 598 52.4103L599.137 55.0704C602.826 69.3426 601.017 85.5308 594 98.4103C586.359 110.738 575.592 116.351 562 120.41L558.543 121.524C552.652 122.948 546.575 122.783 540.549 122.781C538.466 122.786 536.385 122.822 534.303 122.859C516.688 123.007 501.162 118.084 488.156 105.758C479.326 96.1438 475.615 82.3264 475.789 69.5314C476.758 55.1873 481.493 42.5649 492.105 32.6681C505.216 22.4419 520.196 19.8748 536.421 20.0196C538.564 20.0358 540.706 20.0192 542.85 20.0001ZM566.5 48.2765C553.757 39.1104 532.901 37.4108 518.5 43.7765C510.567 47.5036 505.3 52.923 502.211 61.1202C499.704 70.3459 500.905 79.6025 505.555 87.9054C510.329 94.9119 518.069 98.5891 526.187 100.276C538.325 102.157 553.575 102.558 564 95.0265C570.834 88.8836 574.638 82.928 575.203 73.7101C575.341 63.4169 573.582 56.0668 566.5 48.2765Z" fill="#0555C9"/>
<path fill-rule="evenodd" clip-rule="evenodd" d="M673.849 20.0001C690.522 19.9725 706.711 24.2714 719.035 36.1134C727.532 46.0464 731.548 56.9333 731.312 69.8478L731.322 72.506C731.21 86.3042 727.347 96.9001 717.937 107.223C712.421 112.445 705.906 115.399 699 118.41L696.64 119.477C688.298 122.426 680.239 122.783 671.473 122.781C669.399 122.786 667.327 122.822 665.254 122.86C647.736 123.007 632.118 118.128 619.223 105.805C609.428 95.2533 606.187 80.834 606.683 66.7189C607.834 54.6906 612.327 42.185 621.601 33.9962C635.203 23.0818 650.349 19.8674 667.42 20.0197C669.563 20.0358 671.706 20.0192 673.849 20.0001ZM696.5 47.715C681.233 37.5651 656.03 37.2612 641.25 48.6525C636.093 53.5088 633.058 58.9561 632.66 66.09C632.46 75.6269 632.976 84.6562 639.808 91.9611C647.961 98.9171 657.245 101.235 667.812 101.34C680.129 100.972 690.928 99.4297 699.84 90.1017C706.211 82.0793 706.56 73.9922 706 64.0275C704.858 57.7005 701.435 51.8152 696.5 47.715Z" fill="#0555C9"/>
<path fill-rule="evenodd" clip-rule="evenodd" d="M171.303 20.7579C192.651 20.6417 215.049 20.7645 231.625 36.216C240.963 46.0652 244.585 57.5391 244.438 70.9035C244.43 71.8673 244.423 72.8313 244.415 73.8244C244.081 88.2971 238.587 99.2455 228.215 109.239C224.497 112.243 220.385 114.183 216 116.028L213.824 117.036C204.5 120.312 195.133 120.297 185.367 120.224C184.06 120.222 182.753 120.22 181.406 120.218C176.562 120.208 171.719 120.179 166.875 120.153L134 120.028V21.0285L162.438 20.841C166.826 20.8 166.826 20.7997 171.303 20.7579ZM185.562 41.8322C184.147 41.8364 182.732 41.841 181.316 41.8468C179.509 41.8656 177.754 41.8843 176 41.9025L159 42.0275V100.027L174.625 100.09C176.29 100.099 177.906 100.108 179.522 100.117C181.487 100.121 181.488 100.121 183.414 100.125C193.377 100.165 203.222 98.6801 211.227 92.2345C217.527 85.5185 219.141 78.8962 219.312 69.84C219.282 60.6515 216.335 54.5614 210 48.0275C203.528 43.4154 195.558 41.7982 187.729 41.8009C186.992 41.8115 186.277 41.8219 185.562 41.8322Z" fill="#1A2F6A"/>
<path fill-rule="evenodd" clip-rule="evenodd" d="M421.118 20.7103C447.998 20.4395 447.998 20.4392 458 29.0267C463.625 35.2437 465.384 40.474 465.207 48.8822C464.638 54.7721 463.099 59.458 458.625 63.4642C455.937 65.6185 453.226 66.8351 450 68.0267L451.906 68.8041C458.806 71.8901 463.701 75.7528 468 82.0267C470.327 88.2985 470.004 96.6493 468.129 102.956C465.007 109.692 461.045 114.272 454.199 117.242C442.74 121.333 431.363 121.166 419.371 121.124C417.951 121.123 416.53 121.122 415.109 121.121C409.885 121.116 404.661 121.102 399.438 121.089L364 121.027V21.0267L399.125 20.8392C404.572 20.7982 404.573 20.798 410.13 20.7562C414.636 20.7427 414.637 20.7431 416.761 20.7406C418.213 20.736 419.666 20.7257 421.118 20.7103ZM420.812 77.8314C417.883 77.8402 414.954 77.8519 412.025 77.8763C409.995 77.8937 407.963 77.9073 405.933 77.9173C399.955 77.9414 393.978 77.9807 388 78.0267V101.027C393.655 101.046 399.31 101.065 404.965 101.076C407.268 101.08 409.572 101.084 411.875 101.089C415.278 101.102 418.682 101.115 422.085 101.12C423.18 101.122 424.242 101.123 425.305 101.124C426.376 101.13 427.415 101.135 428.455 101.14C429.445 101.14 430.406 101.141 431.367 101.141C434.067 101.148 435.582 101.236 438 100.027C441.244 97.9504 443.551 96.7083 444.566 92.9056C444.79 88.6187 444.19 86.3532 442 82.5892C436.601 77.9781 430.375 77.799 423.538 77.8002C422.162 77.8159 422.161 77.8159 420.812 77.8314ZM421.789 39.7337C418.775 39.747 415.762 39.7646 412.749 39.8011C410.656 39.8271 408.563 39.8476 406.47 39.8626C400.313 39.8988 394.157 39.9577 388 40.0267V61.0267C392.879 61.0649 397.758 61.1041 402.637 61.1244C404.633 61.1326 406.629 61.1417 408.625 61.1517C411.559 61.1772 414.493 61.2031 417.428 61.2142C418.379 61.2171 419.303 61.2192 420.227 61.222C426.941 61.3001 433.021 61.6138 438.375 56.9642C440.024 53.9835 440.29 52.6509 440.375 49.3392C440.32 46.0772 440.382 45.4089 438 43.0267C433.468 40.0985 429.848 39.6855 424.611 39.6869C423.652 39.7028 422.72 39.7183 421.789 39.7337Z" fill="#0555C9"/>
<path d="M55.6602 21.9297C56.6569 21.9318 56.657 21.9324 57.6738 21.9346C59.8034 21.9402 61.9329 21.9521 64.0625 21.9648C65.5033 21.9699 66.944 21.9744 68.3848 21.9785C71.9232 21.9896 75.4616 22.0068 79 22.0273C83.9882 31.2031 88.7341 40.4546 93.1875 49.9023C98.4352 61.0188 104.071 71.9139 109.762 82.8086C113.019 89.0463 116.195 95.3206 119.312 101.629C120.462 103.945 121.63 106.252 122.812 108.551L124.5 111.84L125.969 114.672C127 117.027 127 117.028 127 120.027H100L96 111.652C95.5824 110.783 95.1646 109.914 94.7344 109.019C94.4095 108.333 94.0847 107.647 93.75 106.941C93.2474 105.889 93.2471 105.889 92.7344 104.815C92 103.028 92 103.027 92 101.027H35L34 106.027C32.8597 108.513 31.6965 110.918 30.4375 113.34L27 120.027H0C2.24774 113.284 2.24783 113.284 3.88281 110.285L4.98438 108.238L6.125 106.152C10.1393 98.7684 13.9057 91.2695 17.6475 83.7451C22.0721 74.8524 26.5116 65.9668 30.9482 57.0801C32.6245 53.7223 34.2997 50.3639 35.9736 47.0049C37.6151 43.7112 39.2586 40.418 40.9033 37.126C41.5256 35.8795 42.1477 34.6329 42.7686 33.3857C43.6277 31.6602 44.4896 29.936 45.3516 28.2119C45.8404 27.232 46.3294 26.2518 46.833 25.2422C48.5174 22.047 48.5171 22.0467 51.8672 21.9141C53.1188 21.9193 54.3706 21.9243 55.6602 21.9297ZM63 44.0273C58.9805 52.6651 54.9211 61.2731 50.625 69.7773C48.5687 73.8145 46.6868 77.8102 45 82.0273H82C82 80.0273 82 80.0273 80.4219 76.8086C78.7548 73.5567 77.1624 70.2779 75.6201 66.9648C75.3296 66.338 75.0476 65.7295 74.7656 65.1211C73.8908 63.2349 73.0172 61.3481 72.1445 59.4609C71.5418 58.1574 70.9386 56.8539 70.335 55.5508C68.9326 52.5245 67.5304 49.4978 66.1299 46.4707L65 44.0273H63Z" fill="#1A2F6A"/>
</svg>
